Coordinates
version=1
nRows=26
nColumns=24
inDegrees=yes

Units are S.I. units (second, meters, Newtons, ...)
Angles are in degrees.

endheader
time	pelvis_tilt	pelvis_list	pelvis_rotation	pelvis_tx	pelvis_ty	pelvis_tz	hip_flexion_r	hip_adduction_r	hip_rotation_r	knee_angle_r	ankle_angle_r	subtalar_angle_r	mtp_angle_r	hip_flexion_l	hip_adduction_l	hip_rotation_l	knee_angle_l	ankle_angle_l	subtalar_angle_l	mtp_angle_l	lumbar_extension	lumbar_bending	lumbar_rotation
      1.61466667	      1.28324547	      2.03396236	     -1.89533122	      0.53733425	      1.01227130	      0.27185684	     19.04823305	     -1.35359642	      1.65552106	    -60.36834814	     -1.59543151	    -21.43565706	      0.48708237	      1.60573654	      7.42350850	      0.74361889	     -5.66820802	     -0.81356870	    -13.68731904	      3.51855992	     -3.14971309	      0.12592097	      2.94968920
      1.61883333	      1.38232227	      1.92594075	     -1.74719375	      0.54197896	      1.01266726	      0.27154600	     19.40679712	     -1.24090560	      1.58814862	    -59.68390413	     -1.18435091	    -21.49298280	      0.37811782	      1.04037623	      7.33907482	      1.00484930	     -5.36825017	     -0.77077819	    -13.81819846	      3.49290632	     -3.31256761	      0.25634063	      2.69844882
      1.62300000	      1.42579935	      1.81670400	     -1.57061689	      0.54661248	      1.01297088	      0.27121970	     19.80642105	     -1.13258122	      1.49621499	    -58.95217728	     -0.82380136	    -21.51763692	      0.16232515	      0.55094234	      7.24695314	      1.28263479	     -5.09438849	     -0.77464414	    -13.95572480	      3.44259565	     -3.39677790	      0.38201994	      2.48094625
      1.62716667	      1.46728317	      1.69774194	     -1.40277656	      0.55122361	      1.01323434	      0.27094164	     20.19487304	     -1.00269008	      1.42330050	    -58.18510038	     -0.45783840	    -21.56685869	      0.10424773	      0.10050280	      7.13468016	      1.48182392	     -4.89700740	     -0.65401794	    -13.95335219	      3.43240928	     -3.49134365	      0.51036279	      2.40107029
      1.63133333	      1.56889839	      1.59500636	     -1.24527853	      0.55586034	      1.01355611	      0.27065490	     20.50210146	     -0.89906320	      1.34887019	    -57.37711121	     -0.17350770	    -21.62632708	     -0.02540688	     -0.45768395	      7.04253208	      1.72763783	     -4.60942733	     -0.59280221	    -14.05326910	      3.40649977	     -3.65603557	      0.63045545	      2.14395085
      1.63550000	      1.63144293	      1.49362544	     -1.07536843	      0.56047046	      1.01377236	      0.27036690	     20.84182325	     -0.79910896	      1.26507265	    -56.54352159	      0.09373345	    -21.67409981	     -0.16784667	     -0.94887428	      6.94580866	      1.96520706	     -4.36787103	     -0.51975518	    -14.12934813	      3.38010833	     -3.77104441	      0.74467196	      1.95064251
      1.63966667	      1.61858347	      1.42092084	     -0.91579713	      0.56507255	      1.01383961	      0.27012046	     21.26288703	     -0.72248388	      1.20439732	    -55.69890043	      0.33380054	    -21.70260588	     -0.20822562	     -1.34212841	      6.87107388	      2.15727572	     -4.15334834	     -0.41708073	    -14.08182746	      3.37629851	     -3.78421734	      0.82903250	      1.89714164
      1.64383333	      1.70743214	      1.31752859	     -0.73205227	      0.56968326	      1.01404349	      0.26982621	     21.53565652	     -0.62977922	      1.09981268	    -54.78583581	      0.51711471	    -21.79174290	     -0.37559027	     -1.85991264	      6.76565700	      2.41048214	     -3.91476716	     -0.34969985	    -14.21675061	      3.34915258	     -3.94742330	      0.94066891	      1.57338602
      1.64800000	      1.75703085	      1.22901731	     -0.56195687	      0.57428650	      1.01415268	      0.26957070	     21.84561250	     -0.54495766	      1.01693117	    -53.85535903	      0.68776065	    -21.85836263	     -0.55112423	     -2.32566484	      6.66951533	      2.62984057	     -3.69045066	     -0.25252812	    -14.26347459	      3.32447571	     -4.04795041	      1.03950535	      1.38060061
      1.65216667	      1.73145381	      1.17523549	     -0.40381912	      0.57888242	      1.01410746	      0.26934551	     22.23952950	     -0.49203628	      0.95968989	    -52.92740245	      0.86714077	    -21.88694322	     -0.59643396	     -2.69597125	      6.60489915	      2.81283640	     -3.49079787	     -0.13416600	    -14.20053013	      3.32235051	     -4.04618084	      1.09902724	      1.33288697
      1.65633333	      1.82586250	      1.08298214	     -0.22599898	      0.58348010	      1.01424014	      0.26909061	     22.46154660	     -0.41033602	      0.85958956	    -51.92076561	      0.94702232	    -22.00574054	     -0.78182270	     -3.20504125	      6.49715447	      3.02501945	     -3.27614322	     -0.03467523	    -14.26819505	      3.30104955	     -4.21837543	      1.20007663	      1.01974020
      1.66050000	      1.82448388	      1.01922359	     -0.06098543	      0.58806995	      1.01418199	      0.26885896	     22.79168786	     -0.35016776	      0.79188056	    -50.93119804	      1.14183515	    -21.94919970	     -4.47713403	     -3.60922086	      6.41796461	      3.25352470	     -3.05920809	      0.03067563	    -14.35159314	      2.86982581	     -4.25757304	      1.27702297	      0.84531486
      1.66466667	      1.84695185	      0.96523336	      0.11581982	      0.59264545	      1.01413379	      0.26862678	     23.07959910	     -0.31217680	      0.69878276	    -49.90731539	      1.24268308	    -22.02697209	     -4.49041140	     -4.00856856	      6.34231981	      3.42691499	     -2.90716994	      0.20630623	    -14.26591634	      2.87822566	     -4.33118869	      1.33069655	      0.72928675
      1.66883333	      1.87678607	      0.91008623	      0.25956594	      0.59723399	      1.01407893	      0.26844721	     23.34190556	     -0.25329460	      0.65295662	    -48.84607769	      1.27778198	    -22.13452536	     -4.51982650	     -4.43660275	      6.26353223	      3.58506851	     -2.71110867	      0.34993170	    -14.20868529	      2.88681659	     -4.41990634	      1.39209702	      0.50501060
      1.67300000	      1.85865602	      0.85970874	      0.42164163	      0.60182812	      1.01391103	      0.26824213	     23.64670401	     -0.21730987	      0.56882204	    -47.78001336	      1.36427579	    -22.17740932	     -4.54099407	     -4.79487930	      6.18694919	      3.74212950	     -2.55145542	      0.49370511	    -14.15306410	      2.89374032	     -4.43572918	      1.44770179	      0.39240495
      1.67716667	      1.85834915	      0.82821179	      0.56588695	      0.60641630	      1.01374141	      0.26805640	     23.92050206	     -0.19363350	      0.51303605	    -46.69365152	      1.41054993	    -22.22241777	     -4.56790684	     -5.17950918	      6.13055210	      3.89510802	     -2.37744121	      0.64142880	    -14.09475165	      2.90071782	     -4.47872922	      1.48424667	      0.23059254
      1.68133333	      1.85730341	      0.78508392	      0.70437504	      0.61101552	      1.01355901	      0.26789623	     24.17409019	     -0.15460857	      0.45809334	    -45.57528389	      1.45019506	    -22.26393554	     -4.59731396	     -5.56240323	      6.05768115	      4.03605158	     -2.20745366	      0.79484896	    -14.02860311	      2.90734942	     -4.52410608	      1.53384463	      0.06671170
      1.68550000	      1.83953788	      0.75468958	      0.83113331	      0.61559540	      1.01332260	      0.26777372	     24.43806912	     -0.12133103	      0.42391608	    -44.44491233	      1.46830353	    -22.30742241	     -4.63635394	     -5.92559357	      5.99596438	      4.16969628	     -2.03723484	      0.94968346	    -13.95292222	      2.91366415	     -4.57431111	      1.55201707	     -0.13222334
      1.68966667	      1.81787894	      0.72549252	      0.95721125	      0.62020733	      1.01306186	      0.26763284	     24.68604381	     -0.09608177	      0.37990612	    -43.29154949	      1.50475995	    -22.31120586	     -4.66835457	     -6.28215178	      5.93609560	      4.29123710	     -1.87735735	      1.11190413	    -13.87087281	      2.91908377	     -4.58809933	      1.58885276	     -0.27502864
      1.69383333	      1.79325975	      0.70626604	      1.07095177	      0.62480213	      1.01274692	      0.26752260	     24.92932730	     -0.07627553	      0.35128564	    -42.12943138	      1.53469433	    -22.29539285	     -4.70084491	     -6.63291628	      5.88506894	      4.40459245	     -1.72205453	      1.28300383	    -13.77967677	      2.92375543	     -4.61317394	      1.60610836	     -0.42953937
      1.69800000	      1.76583305	      0.69340681	      1.17491948	      0.62941342	      1.01242197	      0.26742996	     25.15769000	     -0.06047218	      0.33097976	    -40.94428608	      1.56614362	    -22.25078033	     -4.72812862	     -6.98264351	      5.84049542	      4.50551635	     -1.56457940	      1.45174481	    -13.68233200	      2.92692239	     -4.62948574	      1.61813343	     -0.56737202
      1.70216667	      1.70849520	      0.69519869	      1.26058515	      0.63403355	      1.01201635	      0.26736988	     25.41047199	     -0.04975995	      0.34400236	    -39.75665756	      1.62293919	    -22.18543751	     -4.74240554	     -7.30995629	      5.81198321	      4.62218185	     -1.39035097	      1.62599511	    -13.58403529	      2.93019583	     -4.60210779	      1.62179081	     -0.65719640
      1.70633333	      1.67442339	      0.67288506	      1.36696662	      0.63867239	      1.01164352	      0.26727863	     25.60599496	     -0.03243692	      0.30241565	    -38.51816134	      1.62258352	    -22.07935445	     -4.75988930	     -7.63820102	      5.75510394	      4.69197026	     -1.26580291	      1.80692629	    -13.48796794	      2.93016381	     -4.61154827	      1.64099134	     -0.80981927
      1.71050000	      1.62104620	      0.66292199	      1.44966243	      0.64331981	      1.01119973	      0.26722576	     25.81476741	     -0.01404003	      0.30184208	    -37.27785802	      1.65238779	    -21.95947447	     -4.77097968	     -7.95795585	      5.71264995	      4.76823544	     -1.11940954	      1.99132996	    -13.37614530	      2.92835282	     -4.60028864	      1.65144717	     -0.94516391
      1.71466667	      1.56646263	      0.65650832	      1.53071056	      0.64797302	      1.01074940	      0.26719601	     26.00642879	      0.00223511	      0.30351555	    -36.01482389	      1.67670180	    -21.80842957	     -4.77534895	     -8.27410808	      5.67149024	      4.84412771	     -0.97830880	      2.17633946	    -13.26098939	      2.92443696	     -4.59315155	      1.64628200	     -1.06956728
      1.71883333	      1.52450535	      0.64783718	      1.60332114	      0.65263917	      1.01028390	      0.26718026	     26.16640144	      0.02313062	      0.30959930	    -34.72918773	      1.69579045	    -21.62623710	     -4.77142196	     -8.60375132	      5.62762728	      4.90167008	     -0.83905946	      2.36615623	    -13.13371465	      2.91677145	     -4.59902211	      1.65169521	     -1.19637621
